<svg xmlns="http://www.w3.org/2000/svg" viewBox="0 0 94.31 116.45"><defs><style>.cls-1,.cls-2,.cls-3{fill:none;stroke-miterlimit:10;stroke-width:1.6px}.cls-1,.cls-2{stroke:#4f45b4}.cls-1,.cls-3{stroke-linecap:round}.cls-3{stroke:#fff}</style><linearGradient id="Gradient_bez_nazwy_15" data-name="Gradient bez nazwy 15" y1="50.83" x2="77.17" y2="50.83" gradientUnits="userSpaceOnUse"><stop offset="0" stop-color="#4f45b4"/><stop offset="1" stop-color="#ab45b4"/></linearGradient></defs><g id="Warstwa_2" data-name="Warstwa 2"><g id="Warstwa_1-2" data-name="Warstwa 1"><path d="M23.61 101.65s0-9-7-11c-5.85-1.67-14-7-6-19 2.46-3.68 8.2-5.14-7-16-7-5-3-13 5-17.76 2-1.21 4.08-2.83 1-11.24-4-11 2.44-28.7 17-19 6 4 5.77-3.49 12-1 5 2 7 9 11 5 1.91-1.91 6-7 6-7 7-8 18.39-4.82 21 3 2 6-1.7 11.82-6 11.84l-40.8.15a6.26 6.26 0 0 0-6.21 5.55 15.7 15.7 0 0 0-.08 1.6v32.83" fill="url(#Gradient_bez_nazwy_15)"/><path class="cls-1" d="M78.23 36.45v-13a4 4 0 0 0-4-4H27.14a4 4 0 0 0-4 4v67.2m55.09-49.2v26.2-3m0 28v18.83a4 4 0 0 1-4 4H27.14a4 4 0 0 1-4-4V91m.38-62.27h54.09m-54.47 72.98h55.09M44.56 24.28h13.01"/><circle class="cls-1" cx="51.06" cy="108.6" r="3.83"/><path class="cls-1" d="M30.77 81.63h16.18m-16.18 4.74h16.18m-16.18 5h16.18m43.25-9.59a11.89 11.89 0 0 0-.65-5.85l2.77-2.2L91 71.45l-2 .82-1.19.49a11.92 11.92 0 0 0-4.59-3.69l.39-3.5-2.55-.67-1.32 3.16a11.89 11.89 0 0 0-5.85.65l-2.2-2.77-2.28 1.34 1.31 3.17A11.92 11.92 0 0 0 67 75l-3.5-.39-.67 2.55L66 78.52a11.89 11.89 0 0 0 .65 5.85l-2.77 2.2 1.34 2.28 3.17-1.31A11.92 11.92 0 0 0 73 91.23l-.39 3.5 2.55.67 1.32-3.16a11.89 11.89 0 0 0 5.85-.65l2.2 2.77L86.81 93l-1.31-3.15a11.92 11.92 0 0 0 3.69-4.59l2.63.29.87.1.67-2.55z"/><rect class="cls-2" x="29.61" y="47.65" width="30" height="25.82" rx="2" ry="2"/><path class="cls-2" d="M70.61 38.65v12a2 2 0 0 1-2 2h-9v-3a2 2 0 0 0-2-2h-9v-9a2 2 0 0 1 2-2h18a2 2 0 0 1 2 2zm-41 14h30m-11-12h22"/><path class="cls-1" d="M38.13 58.17l-5 4.4a.36.36 0 0 0 0 .56l5 4.4m13.31.36l5-4.4a.36.36 0 0 0 0-.55l-5.05-4.77m-3.42.18l-6.72 9.37M78.77 47.32L85.46 54m2.45 2.45l1.45 1.45"/><path class="cls-3" d="M17.84 57.97l7.39 7.4M11.99 52.12l1.61 1.61M61.47 7.66L67 13.19M56.39 2.58l1.91 1.91M48.04 1.3l12.6 12.6"/><circle cx="78.11" cy="80.15" r="4.5" fill="#fff"/><circle class="cls-2" cx="78.11" cy="80.15" r="4"/><path class="cls-1" d="M91.61 115.65l-12.5-12.5m3.5 8.5l-3.5-3.5"/></g></g></svg>
