<svg xmlns="http://www.w3.org/2000/svg" xmlns:xlink="http://www.w3.org/1999/xlink" viewBox="0 0 111.56 116.15"><defs><style>.cls-4{fill:none;stroke-linecap:round;stroke-miterlimit:10;stroke-width:1.6px;stroke:#4f45b4}</style><linearGradient id="Gradient_bez_nazwy_15" data-name="Gradient bez nazwy 15" x1="-7.83" y1="57.45" x2="73.64" y2="11.72" gradientTransform="translate(6.19 2.25)" gradientUnits="userSpaceOnUse"><stop offset="0" stop-color="#4f45b4"/><stop offset="1" stop-color="#ab45b4"/></linearGradient><linearGradient id="Gradient_bez_nazwy_15-2" x1="28.99" y1="123.05" x2="110.46" y2="77.33" xlink:href="#Gradient_bez_nazwy_15"/></defs><g id="Warstwa_2" data-name="Warstwa 2"><g id="Warstwa_1-2" data-name="Warstwa 1"><path d="M80.3 46.61H41.85a1.07 1.07 0 0 0-1.07 1.07s-.26 30.48-.67 30.64c-4.18 1.61-8.09 2.55-11.48 1.4a1 1 0 0 1-.7-1V28.45a2.32 2.32 0 0 0-2.32-2.32H19a2.33 2.33 0 0 0-2.32 2.32v42.6c-6.23-3.74-6.23-11.22-6.23-19.95S0 47.12 0 32.62 13.49 24.26 17.19 15c4-10 6.6-15 20-15s8.19 8.7 20.66 8.7c7.51 0 10.58 4.09 7.49 8.73-2.5 3.74 5.86 7.16 6.23 8.73.16.67-18.39 0-18.39 0a1 1 0 0 0-.3.05l-9.25 2.76a1.06 1.06 0 0 0 0 2l7.86 2.62a1.2 1.2 0 0 0 .33 0h20.23a.44.44 0 0 0 .1.22c6.9 6.07 8.85 12.8 8.15 12.8z" fill="url(#Gradient_bez_nazwy_15)"/><path d="M62.84 98.48h29.93v-20c0-3.48-.11-10-.11-10s17.57-6.21 18.81 7.51-10.62 4.62-5 18.7c5 12.47-5 21.2-12.46 18.71-11.66-3.89-15.2 1.93-22.45 2.49-16.2 1.3-8.72-17.41-8.72-17.41z" fill="url(#Gradient_bez_nazwy_15-2)"/><path d="M28.99 52.1L41.4 62.53m-5.37-8.42l5.53 4.52m48.77 50.36l-5.53-5.53m10.61 10.61l-1.91-1.91m10.27 3.19l-12.6-12.59" stroke="#fff" fill="none" stroke-linecap="round" stroke-miterlimit="10" stroke-width="1.6"/><path class="cls-4" d="M47.86 20.53l-5.19-5.19m9.96 9.97l-1.79-1.8m8.71 2.06l-10.9-10.89m-28.2 55.1h-2.5m2.5-5.61h-2.5m2.5-5.62h-2.5M20.45 81h-2.5m2.5-5.61h-2.5m2.5-5.61h-2.5m2.5 22.44h-2.5m2.5-5.61h-2.5m2.5-5.61h-2.5m2.5 22.44h-2.5m2.5-5.61h-2.5m2.5-5.61h-2.5m2.5-56.11h-2.5m2.5-5.61h-2.5m2.5 16.83h-2.5m2.5-5.61h-2.5m2.5-5.61h-2.5m2.5 22.44h-2.5m2.5-5.61h-2.5m2.5-5.61h-2.5m9.98-19.95v79.81a1.25 1.25 0 0 1-1.25 1.24H18a1.25 1.25 0 0 1-1.25-1.24V72.62l.25-.52a.4.4 0 0 0-.25-.55V27.38A1.26 1.26 0 0 1 18 26.13h8.73a1.26 1.26 0 0 1 1.2 1.25zm64.73 29.6v41.5h-41.5V88.11h31.12V56.98h10.38z"/><path class="cls-4" d="M82.28 78.99V56.98H51.16v31.13h23.05"/><path class="cls-4" d="M82.28 46.61v10.37H51.16v31.13H40.78v-41.5h41.5zm-41.12.38l10 9.99M40.4 88.51l9.51 9.97m32.76-51.49l9.99 9.99m-9.99 30.74l9.99 10.76m-7.7-72.33v-.01m-.21 4.19H58.47m-5.44-1.67h2.03m-12.87 1.08a.43.43 0 0 1 .21-.21l9.6-3.38h38.84a3.36 3.36 0 0 1 3.36 3.35v.83a3.34 3.34 0 0 1-3.37 3.37H52l-9-3.2m45.72-4.36v7.55"/></g></g></svg>
