<svg xmlns="http://www.w3.org/2000/svg" xmlns:xlink="http://www.w3.org/1999/xlink" viewBox="0 0 94.28 110.56"><defs><style>.cls-2,.cls-3,.cls-5{fill:none;stroke-miterlimit:10;stroke-width:1.6px}.cls-2{stroke:#fff}.cls-2,.cls-3{stroke-linecap:round}.cls-3,.cls-5{stroke:#4f45b4}</style><linearGradient id="Gradient_bez_nazwy_15" data-name="Gradient bez nazwy 15" x1="1.29" y1="98.66" x2="109.79" y2="29.2" gradientUnits="userSpaceOnUse"><stop offset="0" stop-color="#4f45b4"/><stop offset="1" stop-color="#ab45b4"/></linearGradient><linearGradient id="Gradient_bez_nazwy_15-2" x1="-21.44" y1="63.16" x2="87.06" y2="-6.3" xlink:href="#Gradient_bez_nazwy_15"/></defs><g id="Warstwa_2" data-name="Warstwa 2"><g id="Warstwa_1-2" data-name="Warstwa 1"><path d="M91.19 91.09c-5 2-7.94-5-16.87-3C64.54 90.28 60.43 83.47 58.7 77h4.53A4.74 4.74 0 0 0 68 72.28v-40.8a4.75 4.75 0 0 0-4.74-4.75h-14v4.06a2.56 2.56 0 0 1 0 .39 49.76 49.76 0 0 0-2.64-11.49l.07.07 1.74 2c.38.16 9.26-3.25 17-9.08 7.94-5.95 25.31-8 23.81 7-1 9.92-19.14 18.56-8.93 28.78 6 5.95 9.93 5.95 9.93 12.9 0 7.22-7 7.93-2 14.88 1.7 2.38 5 4 6 8.93a5.51 5.51 0 0 1-3.05 5.92z" fill="url(#Gradient_bez_nazwy_15)"/><path class="cls-2" d="M80.58 69.93L67.93 59.3m5.48 8.58l-5.64-4.61"/><path class="cls-3" d="M56.62 39.15l6.63 6.63m2.43 2.43l1.45 1.45m-52.19 7.35l6.63 6.63M24 66.08l1.45 1.44"/><path d="M27 12.74c-.05 1-.38 4.82-2.72 6.39-2.1 1.4-2 4.24-1.91 7.6h-3a4.75 4.75 0 0 0-4.75 4.75v40.8a4.64 4.64 0 0 0 .66 2.39C10.56 76.46 2.57 77.79.44 67.06c-3-15.42 10.58-19 9.4-30.84C9 27.49 3 .07 25.18 3.76v9z" fill="url(#Gradient_bez_nazwy_15-2)"/><path class="cls-5" d="M41.27 58.59a5.53 5.53 0 1 0 5.53 5.52 5.52 5.52 0 0 0-5.53-5.52zm9 18.44h-2.16a6.89 6.89 0 0 0-13.67 0H19.32a4.72 4.72 0 0 1-4.08-2.36 4.64 4.64 0 0 1-.66-2.39v-40.8a4.75 4.75 0 0 1 4.74-4.75h3c0 .93.09 1.89.09 2.87v6.84a2.74 2.74 0 0 0 2.74 2.73 2.69 2.69 0 0 0 1.23-.3 2.74 2.74 0 0 0 1.5-2.43v1.81a2.74 2.74 0 1 0 5.47 0 2.73 2.73 0 1 0 5.46 0V50.1a2.73 2.73 0 0 0 5.46 0V30.79a2.46 2.46 0 0 0 4.89.39"/><circle class="cls-5" cx="41.27" cy="64.11" r="5.53" transform="rotate(-85.93 41.281 64.113)"/><rect class="cls-5" x="33.83" y="93.66" width="14.89" height="16.09" rx="4" ry="4"/><rect class="cls-5" x="8.23" y="93.66" width="14.89" height="16.09" rx="4" ry="4"/><path class="cls-5" d="M41.22 77.91v15.75m-25.55-.24L24.21 86a.94.94 0 0 1 .64-.24H41.1"/><rect class="cls-5" x="59.43" y="93.66" width="14.89" height="16.09" rx="4" ry="4" transform="rotate(-180 66.875 101.71)"/><path class="cls-5" d="M41.44 85.79H57.7a1 1 0 0 1 .64.24l4.77 4.13.1.08 3.65 3.18M48.11 77H34.44a6.89 6.89 0 0 1 13.67 0z"/><circle class="cls-5" cx="41.27" cy="64.11" r="5.53" transform="rotate(-5.65 41.32 64.202)"/><path class="cls-5" d="M34.44 77a5.37 5.37 0 0 0-.07.9m13.81.03a5.37 5.37 0 0 0-.07-.9M27 12.47v.27c-.05 1-.38 4.82-2.72 6.39-2.1 1.4-2 4.24-1.91 7.6m18.29-14.26s-.92 6.66 3.64 6.66c5 0 5 6.52 4.92 7.6m-4.92 4.06v-4.06m0-.77v4.83"/><path class="cls-5" d="M33.94 12.49h9.11V.8H25.18l.08 11.69h8.68zm4.9 25.76v-5.46m-5.47 5.46v-5.01m-5.46 3.2v-5.01"/><path class="cls-3" d="M51.71 85.79h6a1 1 0 0 1 .64.24l4.77 4.13m-13.92-59a2.56 2.56 0 0 0 0-.39v-4.04h14a4.75 4.75 0 0 1 4.8 4.75v40.8A4.75 4.75 0 0 1 63.23 77h-13m8.44 0h4.53a4.75 4.75 0 0 0 4.8-4.72v-40.8"/><path class="cls-2" d="M11.52 6.38l9.63 8.64m-6.52.72L6.81 7.92"/><path class="cls-5" d="M7.83 99.99h14.89m11.91 0h14.88m8.93 0h14.89"/></g></g></svg>
