<svg xmlns="http://www.w3.org/2000/svg" xmlns:xlink="http://www.w3.org/1999/xlink" viewBox="0 0 133.8 113.8"><defs><style>.cls-3,.cls-4,.cls-5{fill:none;stroke-miterlimit:10;stroke-width:1.6px}.cls-3,.cls-4{stroke:#4f45b4}.cls-3,.cls-5{stroke-linecap:round}.cls-5{stroke:#fff}</style><linearGradient id="Gradient_bez_nazwy_15" data-name="Gradient bez nazwy 15" x1="47.33" y1="143.4" x2="144" y2="38.07" gradientUnits="userSpaceOnUse"><stop offset="0" stop-color="#4f45b4"/><stop offset="1" stop-color="#ab45b4"/></linearGradient><linearGradient id="Gradient_bez_nazwy_15-2" x1="-20.47" y1="81.18" x2="76.2" y2="-24.15" xlink:href="#Gradient_bez_nazwy_15"/></defs><g id="Warstwa_2" data-name="Warstwa 2"><g id="Warstwa_1-2" data-name="Warstwa 1"><path d="M119.65 35.59S137.93 49 132.93 58c-3.11 5.6-11.07 9.81-9 16s7.08 14.23-4.28 15.26V35.59z" fill="url(#Gradient_bez_nazwy_15)"/><path d="M82.5 17.15S67 1.61 54.63 2.56C41.21 3.6 46.37 13.92 35 11.85S20.57-4.66 9.22 1.53C.86 6.09 5.09 16 7.15 23.21s2.07 12.38-3.1 18.57-6.64 14 3.1 23.74c9.29 9.29 9.29 19.61 9.29 19.61V23.74A6.72 6.72 0 0 1 23.17 17z" fill="url(#Gradient_bez_nazwy_15-2)"/><path class="cls-3" d="M45 39.05l-6.43 5.63a.45.45 0 0 0 0 .72L45 51m19.62.5l6.45-5.65a.45.45 0 0 0 0-.7l-6.46-6.1m-5.35.22l-9.89 12.01m63.06 2.53v14.54a1 1 0 0 1-1.05 1.05H74a1 1 0 0 1-1-1.05V53.81zm0-3.1v3.1H72.94v-3.1a1 1 0 0 1 1-1.05h37.39a1 1 0 0 1 1.1 1.05z"/><path class="cls-3" d="M84.93 28.11v21.55H74a1 1 0 0 0-1 1.05v6.47H25.75a1 1 0 0 1-1.05-1v-28a1 1 0 0 1 1.05-1h58.13a1 1 0 0 1 1.05.93zm-60.23 5.3h60.24M30.89 67.57h29.93m-29.93 4.89h29.93m-29.93 5.16h29.93"/><path class="cls-4" d="M115.52 95.22H20.68c-2.28 0-4.13-1.85-4.13-5.16V20.25c0-1.25 1.85-3.1 4.13-3.1h94.84a4.13 4.13 0 0 1 4.13 4.13v69.81a4.13 4.13 0 0 1-4.13 4.13zM16.26 87.6l103.39-.4"/><path class="cls-3" d="M77.91 96.25v5.4S77.28 113 89.72 113H46.43c12.43 0 11.81-11.35 11.81-11.35v-5.4"/><path class="cls-5" d="M14.23 47.99l5.71 5.7M8.99 42.74l1.97 1.97m2.41 9.71L2.64 43.69M59.65 4.64l5.7 5.7m-6.57.73L50.9 3.19"/><path class="cls-3" d="M106.23 102.68l-7.74-6.71m.52 4.64l-5.68-4.64"/><circle class="cls-4" cx="93.25" cy="77.66" r="3.88"/><path class="cls-4" d="M98.11 87.37a4.86 4.86 0 1 0-9.71 0"/></g></g></svg>
